<svg xmlns="http://www.w3.org/2000/svg" width="720" height="480" viewBox="0 0 720 480">
  <defs>
    <linearGradient id="g1" x1="0" y1="0" x2="1" y2="1">
      <stop offset="0" stop-color="#e7f7f3"/>
      <stop offset="1" stop-color="#fff1dc"/>
    </linearGradient>
    <linearGradient id="g2" x1="0" y1="0" x2="0" y2="1">
      <stop offset="0" stop-color="#0f766e"/>
      <stop offset="1" stop-color="#12a893"/>
    </linearGradient>
  </defs>
  <rect width="720" height="480" rx="36" fill="url(#g1)"/>
  <circle cx="560" cy="120" r="70" fill="#f59e0b" opacity="0.2"/>
  <circle cx="160" cy="340" r="110" fill="#0f766e" opacity="0.16"/>
  <rect x="210" y="130" width="300" height="220" rx="24" fill="#ffffff" stroke="#e5d8c7" stroke-width="3"/>
  <path d="M190 170 L360 70 L530 170" fill="#ffffff" stroke="#e5d8c7" stroke-width="6" stroke-linejoin="round"/>
  <rect x="330" y="240" width="60" height="110" rx="12" fill="url(#g2)"/>
  <rect x="250" y="210" width="70" height="60" rx="10" fill="#e7f7f3" stroke="#d4c6b7" stroke-width="3"/>
  <rect x="400" y="210" width="70" height="60" rx="10" fill="#fff1dc" stroke="#d4c6b7" stroke-width="3"/>
  <rect x="110" y="110" width="140" height="50" rx="18" fill="#ffffff" stroke="#e5d8c7" stroke-width="2"/>
  <circle cx="130" cy="135" r="8" fill="#0f766e"/>
  <rect x="145" y="125" width="80" height="8" rx="4" fill="#d9e9e5"/>
  <rect x="145" y="138" width="60" height="8" rx="4" fill="#f3e3cf"/>
  <rect x="470" y="310" width="160" height="60" rx="18" fill="#ffffff" stroke="#e5d8c7" stroke-width="2"/>
  <circle cx="490" cy="340" r="10" fill="#f59e0b"/>
  <rect x="510" y="330" width="100" height="8" rx="4" fill="#e6d6c2"/>
  <rect x="510" y="343" width="70" height="8" rx="4" fill="#d9e9e5"/>
</svg>
