<svg xmlns="http://www.w3.org/2000/svg" width="680" height="420" viewBox="0 0 680 420">
  <defs>
    <linearGradient id="g1" x1="0" y1="0" x2="1" y2="1">
      <stop offset="0" stop-color="#fff7ee"/>
      <stop offset="1" stop-color="#e7f7f3"/>
    </linearGradient>
  </defs>
  <rect width="680" height="420" rx="32" fill="url(#g1)"/>
  <rect x="90" y="90" width="210" height="240" rx="20" fill="#ffffff" stroke="#e5d8c7" stroke-width="2"/>
  <rect x="120" y="130" width="150" height="14" rx="7" fill="#e9eef0"/>
  <rect x="120" y="155" width="120" height="14" rx="7" fill="#f3e3cf"/>
  <rect x="120" y="190" width="140" height="14" rx="7" fill="#e9eef0"/>
  <rect x="120" y="215" width="90" height="14" rx="7" fill="#dff3ef"/>
  <rect x="120" y="250" width="150" height="14" rx="7" fill="#e9eef0"/>
  <rect x="120" y="275" width="110" height="14" rx="7" fill="#f3e3cf"/>

  <rect x="360" y="110" width="230" height="80" rx="18" fill="#ffffff" stroke="#e5d8c7" stroke-width="2"/>
  <rect x="380" y="140" width="190" height="12" rx="6" fill="#dff3ef"/>
  <rect x="360" y="210" width="230" height="80" rx="18" fill="#ffffff" stroke="#e5d8c7" stroke-width="2"/>
  <rect x="380" y="240" width="160" height="12" rx="6" fill="#f3e3cf"/>
  <rect x="360" y="310" width="230" height="70" rx="18" fill="#ffffff" stroke="#e5d8c7" stroke-width="2"/>
  <rect x="380" y="336" width="180" height="12" rx="6" fill="#e9eef0"/>

  <circle cx="325" cy="120" r="36" fill="#0f766e" opacity="0.18"/>
  <circle cx="560" cy="60" r="40" fill="#f59e0b" opacity="0.2"/>
</svg>
